<svg width="800" height="340" xmlns="http://www.w3.org/2000/svg">
  <defs>
    <!-- Enhanced gradient with more depth -->
    <linearGradient id="quantumGrad" x1="0%" y1="0%" x2="100%" y2="0%">
      <stop offset="0%" style="stop-color:#0d1117;stop-opacity:1" />
      <stop offset="15%" style="stop-color:#003d1a;stop-opacity:0.3" />
      <stop offset="50%" style="stop-color:#00ff41;stop-opacity:0.3" />
      <stop offset="85%" style="stop-color:#003d1a;stop-opacity:0.3" />
      <stop offset="100%" style="stop-color:#0d1117;stop-opacity:1" />
    </linearGradient>

    <!-- Enhanced glow effects -->
    <filter id="glow" x="-35%" y="-35%" width="170%" height="170%">
      <feGaussianBlur stdDeviation="2.3" result="coloredBlur" />
      <feMerge>
        <feMergeNode in="coloredBlur" />
        <feMergeNode in="SourceGraphic" />
      </feMerge>
    </filter>

    <filter id="textGlow" x="-30%" y="-30%" width="160%" height="160%">
      <feGaussianBlur stdDeviation="3" result="coloredBlur" />
      <feMerge>
        <feMergeNode in="coloredBlur" />
        <feMergeNode in="SourceGraphic" />
      </feMerge>
    </filter>

    <!-- Improved circuit pattern -->
    <pattern id="circuitPattern" patternUnits="userSpaceOnUse" width="20" height="20">
      <rect width="20" height="20" fill="#0d1117" />
      <circle x="0" y="0" cx="10" cy="10" r="2" fill="#00ff41" opacity="0.3" />
    </pattern>
  </defs>

  <!-- Enhanced background -->
  <rect width="800" height="340" fill="url(#circuitPattern)" />
  <rect width="800" height="340" fill="url(#quantumGrad)" opacity="0.4" />

  <!-- Quantum circuit elements with better spacing -->
  <!-- Qubit lines with consistent thickness and high visibility -->
  <line x1="60" y1="90" x2="420" y2="90" stroke="#00b000" stroke-width="2" opacity="1" />
  <line x1="60" y1="130" x2="420" y2="130" stroke="#00b000" stroke-width="2" opacity="1" />
  <line x1="60" y1="170" x2="420" y2="170" stroke="#00b000" stroke-width="2" opacity="1" />

  <!-- Enhanced neural connections -->
  <!-- Quantum to Neural -->
  <!-- Measurement 1 -->
  <line x1="420" y1="90" x2="500" y2="60" stroke="#00b000" stroke-width="2" opacity="1" />
  <line x1="420" y1="90" x2="500" y2="80" stroke="#00b000" stroke-width="2" opacity="1" />
  <line x1="420" y1="90" x2="500" y2="100" stroke="#00b000" stroke-width="2" opacity="1" />
  <line x1="420" y1="90" x2="500" y2="120" stroke="#00b000" stroke-width="2" opacity="1" />
  <line x1="420" y1="90" x2="500" y2="140" stroke="#00b000" stroke-width="2" opacity="1" />
  <line x1="420" y1="90" x2="500" y2="160" stroke="#00b000" stroke-width="2" opacity="1" />
  <line x1="420" y1="90" x2="500" y2="180" stroke="#00b000" stroke-width="2" opacity="1" />
  <line x1="420" y1="90" x2="500" y2="200" stroke="#00b000" stroke-width="2" opacity="1" />

  <!-- Measurement 2 -->
  <line x1="420" y1="130" x2="500" y2="60" stroke="#00b000" stroke-width="2" opacity="1" />
  <line x1="420" y1="130" x2="500" y2="80" stroke="#00b000" stroke-width="2" opacity="1" />
  <line x1="420" y1="130" x2="500" y2="100" stroke="#00b000" stroke-width="2" opacity="1" />
  <line x1="420" y1="130" x2="500" y2="120" stroke="#00b000" stroke-width="2" opacity="1" />
  <line x1="420" y1="130" x2="500" y2="140" stroke="#00b000" stroke-width="2" opacity="1" />
  <line x1="420" y1="130" x2="500" y2="160" stroke="#00b000" stroke-width="2" opacity="1" />
  <line x1="420" y1="130" x2="500" y2="180" stroke="#00b000" stroke-width="2" opacity="1" />
  <line x1="420" y1="130" x2="500" y2="200" stroke="#00b000" stroke-width="2" opacity="1" />

  <!-- Measurement 3 -->
  <line x1="420" y1="170" x2="500" y2="60" stroke="#00b000" stroke-width="2" opacity="1" />
  <line x1="420" y1="170" x2="500" y2="80" stroke="#00b000" stroke-width="2" opacity="1" />
  <line x1="420" y1="170" x2="500" y2="100" stroke="#00b000" stroke-width="2" opacity="1" />
  <line x1="420" y1="170" x2="500" y2="120" stroke="#00b000" stroke-width="2" opacity="1" />
  <line x1="420" y1="170" x2="500" y2="140" stroke="#00b000" stroke-width="2" opacity="1" />
  <line x1="420" y1="170" x2="500" y2="160" stroke="#00b000" stroke-width="2" opacity="1" />
  <line x1="420" y1="170" x2="500" y2="180" stroke="#00b000" stroke-width="2" opacity="1" />
  <line x1="420" y1="170" x2="500" y2="200" stroke="#00b000" stroke-width="2" opacity="1" />


  <!-- Layer 1 to Layer 2 -->
  <!-- Node 1 -->
  <line x1="500" y1="60" x2="580" y2="60" stroke="#00b000" stroke-width="2" opacity="1" />
  <line x1="500" y1="60" x2="580" y2="80" stroke="#00b000" stroke-width="2" opacity="1" />
  <line x1="500" y1="60" x2="580" y2="100" stroke="#00b000" stroke-width="2" opacity="1" />
  <line x1="500" y1="60" x2="580" y2="120" stroke="#00b000" stroke-width="2" opacity="1" />
  <line x1="500" y1="60" x2="580" y2="140" stroke="#00b000" stroke-width="2" opacity="1" />
  <line x1="500" y1="60" x2="580" y2="160" stroke="#00b000" stroke-width="2" opacity="1" />
  <line x1="500" y1="60" x2="580" y2="180" stroke="#00b000" stroke-width="2" opacity="1" />
  <line x1="500" y1="60" x2="580" y2="200" stroke="#00b000" stroke-width="2" opacity="1" />

  <!-- Node 2 -->
  <line x1="500" y1="80" x2="580" y2="60" stroke="#00b000" stroke-width="2" opacity="1" />
  <line x1="500" y1="80" x2="580" y2="80" stroke="#00b000" stroke-width="2" opacity="1" />
  <line x1="500" y1="80" x2="580" y2="100" stroke="#00b000" stroke-width="2" opacity="1" />
  <line x1="500" y1="80" x2="580" y2="120" stroke="#00b000" stroke-width="2" opacity="1" />
  <line x1="500" y1="80" x2="580" y2="140" stroke="#00b000" stroke-width="2" opacity="1" />
  <line x1="500" y1="80" x2="580" y2="160" stroke="#00b000" stroke-width="2" opacity="1" />
  <line x1="500" y1="80" x2="580" y2="180" stroke="#00b000" stroke-width="2" opacity="1" />
  <line x1="500" y1="80" x2="580" y2="200" stroke="#00b000" stroke-width="2" opacity="1" />


  <!-- Node 3 -->
  <line x1="500" y1="100" x2="580" y2="60" stroke="#00b000" stroke-width="2" opacity="1" />
  <line x1="500" y1="100" x2="580" y2="80" stroke="#00b000" stroke-width="2" opacity="1" />
  <line x1="500" y1="100" x2="580" y2="100" stroke="#00b000" stroke-width="2" opacity="1" />
  <line x1="500" y1="100" x2="580" y2="120" stroke="#00b000" stroke-width="2" opacity="1" />
  <line x1="500" y1="100" x2="580" y2="140" stroke="#00b000" stroke-width="2" opacity="1" />
  <line x1="500" y1="100" x2="580" y2="160" stroke="#00b000" stroke-width="2" opacity="1" />
  <line x1="500" y1="100" x2="580" y2="180" stroke="#00b000" stroke-width="2" opacity="1" />
  <line x1="500" y1="100" x2="580" y2="200" stroke="#00b000" stroke-width="2" opacity="1" />

  <!-- Node 4 -->
  <line x1="500" y1="120" x2="580" y2="60" stroke="#00b000" stroke-width="2" opacity="1" />
  <line x1="500" y1="120" x2="580" y2="80" stroke="#00b000" stroke-width="2" opacity="1" />
  <line x1="500" y1="120" x2="580" y2="100" stroke="#00b000" stroke-width="2" opacity="1" />
  <line x1="500" y1="120" x2="580" y2="120" stroke="#00b000" stroke-width="2" opacity="1" />
  <line x1="500" y1="120" x2="580" y2="140" stroke="#00b000" stroke-width="2" opacity="1" />
  <line x1="500" y1="120" x2="580" y2="160" stroke="#00b000" stroke-width="2" opacity="1" />
  <line x1="500" y1="120" x2="580" y2="180" stroke="#00b000" stroke-width="2" opacity="1" />
  <line x1="500" y1="120" x2="580" y2="200" stroke="#00b000" stroke-width="2" opacity="1" />

  <!-- Node 5 -->
  <line x1="500" y1="140" x2="580" y2="60" stroke="#00b000" stroke-width="2" opacity="1" />
  <line x1="500" y1="140" x2="580" y2="80" stroke="#00b000" stroke-width="2" opacity="1" />
  <line x1="500" y1="140" x2="580" y2="100" stroke="#00b000" stroke-width="2" opacity="1" />
  <line x1="500" y1="140" x2="580" y2="120" stroke="#00b000" stroke-width="2" opacity="1" />
  <line x1="500" y1="140" x2="580" y2="140" stroke="#00b000" stroke-width="2" opacity="1" />
  <line x1="500" y1="140" x2="580" y2="160" stroke="#00b000" stroke-width="2" opacity="1" />
  <line x1="500" y1="140" x2="580" y2="180" stroke="#00b000" stroke-width="2" opacity="1" />
  <line x1="500" y1="140" x2="580" y2="200" stroke="#00b000" stroke-width="2" opacity="1" />

  <!-- Node 6 -->
  <line x1="500" y1="160" x2="580" y2="60" stroke="#00b000" stroke-width="2" opacity="1" />
  <line x1="500" y1="160" x2="580" y2="80" stroke="#00b000" stroke-width="2" opacity="1" />
  <line x1="500" y1="160" x2="580" y2="100" stroke="#00b000" stroke-width="2" opacity="1" />
  <line x1="500" y1="160" x2="580" y2="120" stroke="#00b000" stroke-width="2" opacity="1" />
  <line x1="500" y1="160" x2="580" y2="140" stroke="#00b000" stroke-width="2" opacity="1" />
  <line x1="500" y1="160" x2="580" y2="160" stroke="#00b000" stroke-width="2" opacity="1" />
  <line x1="500" y1="160" x2="580" y2="180" stroke="#00b000" stroke-width="2" opacity="1" />
  <line x1="500" y1="160" x2="580" y2="200" stroke="#00b000" stroke-width="2" opacity="1" />

  <!-- Node 7 -->
  <line x1="500" y1="180" x2="580" y2="60" stroke="#00b000" stroke-width="2" opacity="1" />
  <line x1="500" y1="180" x2="580" y2="80" stroke="#00b000" stroke-width="2" opacity="1" />
  <line x1="500" y1="180" x2="580" y2="100" stroke="#00b000" stroke-width="2" opacity="1" />
  <line x1="500" y1="180" x2="580" y2="120" stroke="#00b000" stroke-width="2" opacity="1" />
  <line x1="500" y1="180" x2="580" y2="140" stroke="#00b000" stroke-width="2" opacity="1" />
  <line x1="500" y1="180" x2="580" y2="160" stroke="#00b000" stroke-width="2" opacity="1" />
  <line x1="500" y1="180" x2="580" y2="180" stroke="#00b000" stroke-width="2" opacity="1" />
  <line x1="500" y1="180" x2="580" y2="200" stroke="#00b000" stroke-width="2" opacity="1" />

  <!-- Node 8 -->
  <line x1="500" y1="200" x2="580" y2="60" stroke="#00b000" stroke-width="2" opacity="1" />
  <line x1="500" y1="200" x2="580" y2="80" stroke="#00b000" stroke-width="2" opacity="1" />
  <line x1="500" y1="200" x2="580" y2="100" stroke="#00b000" stroke-width="2" opacity="1" />
  <line x1="500" y1="200" x2="580" y2="120" stroke="#00b000" stroke-width="2" opacity="1" />
  <line x1="500" y1="200" x2="580" y2="140" stroke="#00b000" stroke-width="2" opacity="1" />
  <line x1="500" y1="200" x2="580" y2="160" stroke="#00b000" stroke-width="2" opacity="1" />
  <line x1="500" y1="200" x2="580" y2="180" stroke="#00b000" stroke-width="2" opacity="1" />
  <line x1="500" y1="200" x2="580" y2="200" stroke="#00b000" stroke-width="2" opacity="1" />

  <!-- Layer 2 to Layer 3 -->
  <!-- Node 1 -->
  <line x1="580" y1="60" x2="660" y2="70" stroke="#00b000" stroke-width="2" opacity="1" />
  <line x1="580" y1="60" x2="660" y2="90" stroke="#00b000" stroke-width="2" opacity="1" />
  <line x1="580" y1="60" x2="660" y2="110" stroke="#00b000" stroke-width="2" opacity="1" />
  <line x1="580" y1="60" x2="660" y2="130" stroke="#00b000" stroke-width="2" opacity="1" />
  <line x1="580" y1="60" x2="660" y2="150" stroke="#00b000" stroke-width="2" opacity="1" />
  <line x1="580" y1="60" x2="660" y2="170" stroke="#00b000" stroke-width="2" opacity="1" />
  <line x1="580" y1="60" x2="660" y2="190" stroke="#00b000" stroke-width="2" opacity="1" />

  <!-- Node 2 -->
  <line x1="580" y1="80" x2="660" y2="70" stroke="#00b000" stroke-width="2" opacity="1" />
  <line x1="580" y1="80" x2="660" y2="90" stroke="#00b000" stroke-width="2" opacity="1" />
  <line x1="580" y1="80" x2="660" y2="110" stroke="#00b000" stroke-width="2" opacity="1" />
  <line x1="580" y1="80" x2="660" y2="130" stroke="#00b000" stroke-width="2" opacity="1" />
  <line x1="580" y1="80" x2="660" y2="150" stroke="#00b000" stroke-width="2" opacity="1" />
  <line x1="580" y1="80" x2="660" y2="170" stroke="#00b000" stroke-width="2" opacity="1" />
  <line x1="580" y1="80" x2="660" y2="190" stroke="#00b000" stroke-width="2" opacity="1" />

  <!-- Node 3 -->
  <line x1="580" y1="100" x2="660" y2="70" stroke="#00b000" stroke-width="2" opacity="1" />
  <line x1="580" y1="100" x2="660" y2="90" stroke="#00b000" stroke-width="2" opacity="1" />
  <line x1="580" y1="100" x2="660" y2="110" stroke="#00b000" stroke-width="2" opacity="1" />
  <line x1="580" y1="100" x2="660" y2="130" stroke="#00b000" stroke-width="2" opacity="1" />
  <line x1="580" y1="100" x2="660" y2="150" stroke="#00b000" stroke-width="2" opacity="1" />
  <line x1="580" y1="100" x2="660" y2="170" stroke="#00b000" stroke-width="2" opacity="1" />
  <line x1="580" y1="100" x2="660" y2="190" stroke="#00b000" stroke-width="2" opacity="1" />

  <!-- Node 4 -->
  <line x1="580" y1="120" x2="660" y2="70" stroke="#00b000" stroke-width="2" opacity="1" />
  <line x1="580" y1="120" x2="660" y2="90" stroke="#00b000" stroke-width="2" opacity="1" />
  <line x1="580" y1="120" x2="660" y2="110" stroke="#00b000" stroke-width="2" opacity="1" />
  <line x1="580" y1="120" x2="660" y2="130" stroke="#00b000" stroke-width="2" opacity="1" />
  <line x1="580" y1="120" x2="660" y2="150" stroke="#00b000" stroke-width="2" opacity="1" />
  <line x1="580" y1="120" x2="660" y2="170" stroke="#00b000" stroke-width="2" opacity="1" />
  <line x1="580" y1="120" x2="660" y2="190" stroke="#00b000" stroke-width="2" opacity="1" />

  <!-- Node 5 -->
  <line x1="580" y1="140" x2="660" y2="70" stroke="#00b000" stroke-width="2" opacity="1" />
  <line x1="580" y1="140" x2="660" y2="90" stroke="#00b000" stroke-width="2" opacity="1" />
  <line x1="580" y1="140" x2="660" y2="110" stroke="#00b000" stroke-width="2" opacity="1" />
  <line x1="580" y1="140" x2="660" y2="130" stroke="#00b000" stroke-width="2" opacity="1" />
  <line x1="580" y1="140" x2="660" y2="150" stroke="#00b000" stroke-width="2" opacity="1" />
  <line x1="580" y1="140" x2="660" y2="170" stroke="#00b000" stroke-width="2" opacity="1" />
  <line x1="580" y1="140" x2="660" y2="190" stroke="#00b000" stroke-width="2" opacity="1" />

  <!-- Node 6 -->
  <line x1="580" y1="160" x2="660" y2="70" stroke="#00b000" stroke-width="2" opacity="1" />
  <line x1="580" y1="160" x2="660" y2="90" stroke="#00b000" stroke-width="2" opacity="1" />
  <line x1="580" y1="160" x2="660" y2="110" stroke="#00b000" stroke-width="2" opacity="1" />
  <line x1="580" y1="160" x2="660" y2="130" stroke="#00b000" stroke-width="2" opacity="1" />
  <line x1="580" y1="160" x2="660" y2="150" stroke="#00b000" stroke-width="2" opacity="1" />
  <line x1="580" y1="160" x2="660" y2="170" stroke="#00b000" stroke-width="2" opacity="1" />
  <line x1="580" y1="160" x2="660" y2="190" stroke="#00b000" stroke-width="2" opacity="1" />

  <!-- Node 7 -->
  <line x1="580" y1="180" x2="660" y2="70" stroke="#00b000" stroke-width="2" opacity="1" />
  <line x1="580" y1="180" x2="660" y2="90" stroke="#00b000" stroke-width="2" opacity="1" />
  <line x1="580" y1="180" x2="660" y2="110" stroke="#00b000" stroke-width="2" opacity="1" />
  <line x1="580" y1="180" x2="660" y2="130" stroke="#00b000" stroke-width="2" opacity="1" />
  <line x1="580" y1="180" x2="660" y2="150" stroke="#00b000" stroke-width="2" opacity="1" />
  <line x1="580" y1="180" x2="660" y2="170" stroke="#00b000" stroke-width="2" opacity="1" />
  <line x1="580" y1="180" x2="660" y2="190" stroke="#00b000" stroke-width="2" opacity="1" />

  <!-- Node 8 -->
  <line x1="580" y1="200" x2="660" y2="70" stroke="#00b000" stroke-width="2" opacity="1" />
  <line x1="580" y1="200" x2="660" y2="90" stroke="#00b000" stroke-width="2" opacity="1" />
  <line x1="580" y1="200" x2="660" y2="110" stroke="#00b000" stroke-width="2" opacity="1" />
  <line x1="580" y1="200" x2="660" y2="130" stroke="#00b000" stroke-width="2" opacity="1" />
  <line x1="580" y1="200" x2="660" y2="150" stroke="#00b000" stroke-width="2" opacity="1" />
  <line x1="580" y1="200" x2="660" y2="170" stroke="#00b000" stroke-width="2" opacity="1" />
  <line x1="580" y1="200" x2="660" y2="190" stroke="#00b000" stroke-width="2" opacity="1" />

  <!-- Layer 3 to Layer 4 -->
  <!-- Node 1 -->
  <line x1="660" y1="70" x2="740" y2="100" stroke="#00b000" stroke-width="2" opacity="1" />
  <line x1="660" y1="70" x2="740" y2="120" stroke="#00b000" stroke-width="2" opacity="1" />
  <line x1="660" y1="70" x2="740" y2="140" stroke="#00b000" stroke-width="2" opacity="1" />
  <line x1="660" y1="70" x2="740" y2="160" stroke="#00b000" stroke-width="2" opacity="1" />


  <!-- Node 2 -->
  <line x1="660" y1="90" x2="740" y2="120" stroke="#00b000" stroke-width="2" opacity="1" />
  <line x1="660" y1="90" x2="740" y2="140" stroke="#00b000" stroke-width="2" opacity="1" />
  <line x1="660" y1="90" x2="740" y2="160" stroke="#00b000" stroke-width="2" opacity="1" />

  <!-- Node 3 -->
  <line x1="660" y1="110" x2="740" y2="100" stroke="#00b000" stroke-width="2" opacity="1" />
  <line x1="660" y1="110" x2="740" y2="120" stroke="#00b000" stroke-width="2" opacity="1" />
  <line x1="660" y1="110" x2="740" y2="140" stroke="#00b000" stroke-width="2" opacity="1" />
  <line x1="660" y1="110" x2="740" y2="160" stroke="#00b000" stroke-width="2" opacity="1" />

  <!-- Node 4 -->
  <line x1="660" y1="130" x2="740" y2="100" stroke="#00b000" stroke-width="2" opacity="1" />
  <line x1="660" y1="130" x2="740" y2="120" stroke="#00b000" stroke-width="2" opacity="1" />
  <line x1="660" y1="130" x2="740" y2="140" stroke="#00b000" stroke-width="2" opacity="1" />
  <line x1="660" y1="130" x2="740" y2="160" stroke="#00b000" stroke-width="2" opacity="1" />

  <!-- Node 5 -->
  <line x1="660" y1="150" x2="740" y2="100" stroke="#00b000" stroke-width="2" opacity="1" />
  <line x1="660" y1="150" x2="740" y2="120" stroke="#00b000" stroke-width="2" opacity="1" />
  <line x1="660" y1="150" x2="740" y2="140" stroke="#00b000" stroke-width="2" opacity="1" />
  <line x1="660" y1="150" x2="740" y2="160" stroke="#00b000" stroke-width="2" opacity="1" />

  <!-- Node 6 -->
  <line x1="660" y1="170" x2="740" y2="100" stroke="#00b000" stroke-width="2" opacity="1" />
  <line x1="660" y1="170" x2="740" y2="120" stroke="#00b000" stroke-width="2" opacity="1" />
  <line x1="660" y1="170" x2="740" y2="140" stroke="#00b000" stroke-width="2" opacity="1" />
  <line x1="660" y1="170" x2="740" y2="160" stroke="#00b000" stroke-width="2" opacity="1" />

  <!-- Node 7 -->
  <line x1="660" y1="190" x2="740" y2="100" stroke="#00b000" stroke-width="2" opacity="1" />
  <line x1="660" y1="190" x2="740" y2="120" stroke="#00b000" stroke-width="2" opacity="1" />
  <line x1="660" y1="190" x2="740" y2="140" stroke="#00b000" stroke-width="2" opacity="1" />
  <line x1="660" y1="190" x2="740" y2="160" stroke="#00b000" stroke-width="2" opacity="1" />

  <!-- Better distributed quantum gates -->
  <!-- H Gate -->
  <rect x="110" y="80" width="20" height="20" fill="#0d1117" stroke="#00ff41" stroke-width="2" filter="url(#glow)" />
  <text x="120" y="95" fill="#00ff41" font-family="monospace" font-size="14" font-weight="bold"
    text-anchor="middle">H</text>

  <!-- CNOT Gate with proper control-target connection -->
  <circle cx="180" cy="90" r="6" fill="#00ff41" stroke="#00ff41" stroke-width="2" filter="url(#glow)" />
  <line x1="180" y1="90" x2="180" y2="130" stroke="#00ff41" stroke-width="2" opacity="1" />
  <circle cx="180" cy="130" r="6" fill="none" stroke="#00ff41" stroke-width="2" filter="url(#glow)" />
  <line x1="174" y1="130" x2="186" y2="130" stroke="#00ff41" stroke-width="2" />
  <line x1="180" y1="124" x2="180" y2="136" stroke="#00ff41" stroke-width="2" />

  <!-- H Gate on second qubit -->
  <rect x="230" y="120" width="20" height="20" fill="#0d1117" stroke="#00ff41" stroke-width="2" filter="url(#glow)" />
  <text x="240" y="135" fill="#00ff41" font-family="monospace" font-size="14" font-weight="bold"
    text-anchor="middle">H</text>

  <!-- Ry Gate with better positioning -->
  <rect x="290" y="160" width="20" height="20" fill="#0d1117" stroke="#00ff41" stroke-width="2" filter="url(#glow)" />
  <text x="300" y="174" fill="#00ff41" font-family="monospace" font-size="12" font-weight="bold"
    text-anchor="middle">Ry</text>

  <!-- Toffoli gate -->
  <line x1="360" y1="90" x2="360" y2="170" stroke="#00ff41" stroke-width="2" opacity="1" />
  <circle cx="360" cy="90" r="6" fill="#00ff41" stroke="#00ff41" stroke-width="2" filter="url(#glow)" />
  <circle cx="360" cy="130" r="6" fill="#00ff41" stroke="#00ff41" stroke-width="2" filter="url(#glow)" />
  <circle cx="360" cy="170" r="6" fill="none" stroke="#00ff41" stroke-width="2" filter="url(#glow)" />
  <line x1="354" y1="170" x2="366" y2="170" stroke="#00ff41" stroke-width="2" />
  <line x1="360" y1="164" x2="360" y2="176" stroke="#00ff41" stroke-width="2" />

  <!-- Measurement gates (quantum-to-classical boundary) -->
  <rect x="410" y="80" width="20" height="20" fill="#0d1117" stroke="#00ff41" stroke-width="2" filter="url(#glow)" />
  <text x="420" y="95" fill="#00ff41" font-family="monospace" font-size="14" font-weight="bold"
    text-anchor="middle">M</text>
  <rect x="410" y="120" width="20" height="20" fill="#0d1117" stroke="#00ff41" stroke-width="2" filter="url(#glow)" />
  <text x="420" y="135" fill="#00ff41" font-family="monospace" font-size="14" font-weight="bold"
    text-anchor="middle">M</text>
  <rect x="410" y="160" width="20" height="20" fill="#0d1117" stroke="#00ff41" stroke-width="2" filter="url(#glow)" />
  <text x="420" y="175" fill="#00ff41" font-family="monospace" font-size="14" font-weight="bold"
    text-anchor="middle">M</text>


  <!-- Neural network nodes (now receiving classical data) -->
  <!-- Layer 1 -->
  <circle cx="500" cy="60" r="5" fill="#00ff41" opacity="1" filter="url(#glow)" />
  <circle cx="500" cy="80" r="5" fill="#00ff41" opacity="1" filter="url(#glow)" />
  <circle cx="500" cy="100" r="5" fill="#00ff41" opacity="1" filter="url(#glow)" />
  <circle cx="500" cy="120" r="5" fill="#00ff41" opacity="1" filter="url(#glow)" />
  <circle cx="500" cy="140" r="5" fill="#00ff41" opacity="1" filter="url(#glow)" />
  <circle cx="500" cy="160" r="5" fill="#00ff41" opacity="1" filter="url(#glow)" />
  <circle cx="500" cy="180" r="5" fill="#00ff41" opacity="1" filter="url(#glow)" />
  <circle cx="500" cy="200" r="5" fill="#00ff41" opacity="1" filter="url(#glow)" />

  <!-- Layer 2 -->
  <circle cx="580" cy="60" r="5" fill="#00b000" opacity="1" filter="url(#glow)" />
  <circle cx="580" cy="80" r="5" fill="#00b000" opacity="1" filter="url(#glow)" />
  <circle cx="580" cy="100" r="5" fill="#00b000" opacity="1" filter="url(#glow)" />
  <circle cx="580" cy="120" r="5" fill="#00b000" opacity="1" filter="url(#glow)" />
  <circle cx="580" cy="140" r="5" fill="#00b000" opacity="1" filter="url(#glow)" />
  <circle cx="580" cy="160" r="5" fill="#00b000" opacity="1" filter="url(#glow)" />
  <circle cx="580" cy="180" r="5" fill="#00b000" opacity="1" filter="url(#glow)" />
  <circle cx="580" cy="200" r="5" fill="#00b000" opacity="1" filter="url(#glow)" />
  <!-- Layer 3 -->
  <circle cx="660" cy="70" r="5" fill="#00b000" opacity="1" filter="url(#glow)" />
  <circle cx="660" cy="90" r="5" fill="#00b000" opacity="1" filter="url(#glow)" />
  <circle cx="660" cy="110" r="5" fill="#00b000" opacity="1" filter="url(#glow)" />
  <circle cx="660" cy="130" r="5" fill="#00b000" opacity="1" filter="url(#glow)" />
  <circle cx="660" cy="150" r="5" fill="#00b000" opacity="1" filter="url(#glow)" />
  <circle cx="660" cy="170" r="5" fill="#00b000" opacity="1" filter="url(#glow)" />
  <circle cx="660" cy="190" r="5" fill="#00b000" opacity="1" filter="url(#glow)" />

  <!-- Layer 4 -->
  <circle cx="740" cy="100" r="5" fill="#00ff41" opacity="1" filter="url(#glow)" />
  <circle cx="740" cy="120" r="5" fill="#00ff41" opacity="1" filter="url(#glow)" />
  <circle cx="740" cy="140" r="5" fill="#00ff41" opacity="1" filter="url(#glow)" />
  <circle cx="740" cy="160" r="5" fill="#00ff41" opacity="1" filter="url(#glow)" />


  <!-- Main title with enhanced glow -->
  <text x="400" y="40" fill="#00ff41" font-family="monospace" font-size="28" font-weight="bold" text-anchor="middle">
    JORGE'S QUANTUM STATE
  </text>

  <!-- Decorative quantum symbols -->
  <text x="50" y="100" fill="#00ff41" font-family="serif" font-size="20" opacity="1">🍀</text>
  <text x="50" y="135" fill="#00ff41" font-family="serif" font-size="20" opacity="1">🧠</text>
  <text x="50" y="175" fill="#00ff41" font-family="serif" font-size="20" opacity="1">☕</text>


  <!-- Current action -->
  <text x="400" y="255" fill="#00ff41" font-family="monospace" font-size="14" font-weight="bold" text-anchor="middle"
    opacity="0.9">🚀 [STATUS] </text>
  <text x="400" y="285" fill="#00ff41" font-family="monospace" font-size="14" font-weight="bold" text-anchor="middle"
    opacity="0.9">As of Jan, 03 2026 at 04:08PM UTC, Jorge is</text>
  <text x="400" y="305" fill="rgb(255, 255, 255)" font-family="monospace" font-size="20" font-weight="bold"
    text-anchor="middle" opacity="0.9">Experiencing a breakthrough</text>


  <!-- Status indicators -->
  <text x="750" y="225" fill="#00ff41" font-family="monospace" font-size="10" font-weight="bold" text-anchor="end"
    opacity="0.8">QUANTUM_STATE: COHERENT</text>
  <text x="750" y="245" fill="#00ff41" font-family="monospace" font-size="10" font-weight="bold" text-anchor="end"
    opacity="0.8">NEURAL_NET: ACTIVE</text>
  <text x="750" y="265" fill="#00ff41" font-family="monospace" font-size="10" font-weight="bold" text-anchor="end"
    opacity="0.8">ARCHITECTURE: 8→8→7→4</text>
  <text x="750" y="285" fill="#00ff41" font-family="monospace" font-size="10" font-weight="bold" text-anchor="end"
    opacity="0.8">ENTANGLEMENT: HIGH</text>
  <text x="750" y="305" fill="#00ff41" font-family="monospace" font-size="10" font-weight="bold" text-anchor="end"
    opacity="0.8">CONSCIOUSNESS: ONLINE</text>


  <!-- Subtle border for definition -->
  <rect x="1" y="1" width="798" height="338" fill="none" stroke="#00ff41" stroke-width="2" opacity="0.3" />
</svg>